<?xml version="1.0" encoding="UTF-8"?>
<svg xmlns="http://www.w3.org/2000/svg" width="60" height="60" viewBox="0 0 60 60">
    <defs>
        <filter id="waxTexture" x="-20%" y="-20%" width="140%" height="140%">
            <feTurbulence type="fractalNoise" baseFrequency="0.05" numOctaves="3" result="noise"/>
            <feDisplacementMap in="SourceGraphic" in2="noise" scale="8" xChannelSelector="R" yChannelSelector="G"/>
        </filter>
        <radialGradient id="waxGradient" cx="30%" cy="30%" r="70%">
            <stop offset="0%" stop-color="#d93c3c"/>
            <stop offset="100%" stop-color="#a82525"/>
        </radialGradient>
    </defs>
    
    <!-- Wax Body -->
    <path d="M30 55C15 55 5 45 5 30S15 5 30 5s25 10 25 25-10 25-25 25z" 
          fill="url(#waxGradient)"
          filter="url(#waxTexture)"
          stroke="#a82525"
          stroke-width="0.5"/>
    
    <!-- Crack Details -->
    <path d="M22 38c-2-1-4-3-3-5 1-2 3-3 5-2M38 38c2-1 4-3 3-5-1-2-3-3-5-2" 
          stroke="#7a1a1a"
          stroke-width="0.8"
          fill="none"/>
    
    <!-- Center Text - Using system fallback fonts -->
    <text x="50%" y="50%" 
          text-anchor="middle" 
          dominant-baseline="central"
          font-size="10"
          font-family="Georgia, serif"
          font-weight="bold"
          fill="#ffffff">
          <tspan dx="0" dy="0">B &amp; L</tspan>
    </text>
    
    <!-- Wax Highlights -->
    <path d="M25 20q5-2 10 0" 
          stroke="#ff6666"
          stroke-width="1"
          fill="none"
          opacity="0.3"/>
</svg>